<?xml version="1.0" standalone="no"?>
<!DOCTYPE svg PUBLIC "-//W3C//DTD SVG 20010904//EN"
 "http://www.w3.org/TR/2001/REC-SVG-20010904/DTD/svg10.dtd">
<svg version="1.0" xmlns="http://www.w3.org/2000/svg"
 width="380.000000pt" height="328.000000pt" viewBox="0 0 380.000000 328.000000"
 preserveAspectRatio="xMidYMid meet">

<g transform="translate(0.000000,328.000000) scale(0.100000,-0.100000)"
fill="#000000" stroke="none">
<path d="M0 2463 l0 -817 38 35 c77 74 228 139 320 139 36 0 66 6 78 15 10 8
27 15 37 15 9 0 17 5 17 10 0 6 9 10 20 10 11 0 20 -5 20 -11 0 -14 39 -49 55
-49 6 0 20 -7 31 -16 17 -14 17 -15 1 -10 -10 3 -26 -3 -38 -15 -28 -28 -41
-20 -56 32 l-12 44 1 -40 c1 -22 -4 -51 -11 -63 -7 -13 -10 -26 -7 -30 3 -3
-1 -16 -10 -30 -8 -13 -13 -29 -11 -36 3 -6 -1 -20 -9 -31 -19 -25 -18 -36 2
-28 14 5 15 3 5 -15 -6 -11 -11 -34 -11 -49 0 -16 -7 -38 -15 -49 -21 -28 -18
-40 3 -14 l19 23 21 -21 c11 -11 18 -23 15 -26 -6 -5 21 -10 40 -7 10 1 9 -7
-5 -32 -10 -20 -10 -21 5 -9 14 12 19 12 33 -2 9 -9 13 -23 10 -31 -3 -9 0
-15 9 -15 8 0 15 5 15 11 0 5 5 7 10 4 6 -4 8 -11 5 -16 -4 -5 -2 -9 4 -9 6 0
7 -8 4 -17 -5 -12 -2 -15 10 -10 9 3 17 2 17 -3 0 -9 -14 -14 -32 -11 -4 0 -5
-6 -2 -14 6 -14 -6 -20 -29 -16 -5 1 -11 -8 -14 -19 -3 -11 -8 -20 -12 -20 -3
0 -19 -11 -34 -25 -20 -19 -27 -22 -27 -10 0 8 5 15 10 15 6 0 10 6 10 13 -1
6 -10 1 -20 -12 -11 -13 -20 -19 -21 -15 0 5 -2 19 -5 31 -2 13 1 23 8 23 6 0
8 3 4 7 -4 4 -16 -3 -27 -17 -15 -20 -18 -21 -12 -5 3 11 13 30 21 43 8 12 10
22 4 22 -6 0 -12 -6 -15 -12 -3 -7 -10 -1 -16 15 -6 16 -16 25 -21 22 -6 -4
-8 -10 -6 -14 3 -4 -9 -16 -25 -26 -22 -15 -29 -27 -28 -50 l1 -30 9 31 c5 17
17 38 26 45 15 12 16 12 10 -4 -4 -10 -7 -23 -7 -28 0 -6 -5 -7 -10 -4 -6 3
-10 2 -10 -4 0 -5 5 -13 11 -17 8 -4 7 -9 -2 -15 -11 -7 -9 -9 6 -10 11 -1 23
-1 28 0 13 2 7 -17 -8 -23 -8 -3 -15 -13 -15 -23 1 -17 1 -17 11 0 10 17 12
16 35 -5 13 -13 24 -29 24 -35 0 -7 5 -13 11 -13 7 0 9 -10 7 -25 -3 -14 -2
-28 2 -30 10 -6 3 -60 -10 -85 -6 -11 -8 -20 -5 -20 10 0 35 68 35 97 1 26 2
27 14 10 8 -10 13 -29 11 -43 -1 -13 1 -24 4 -24 6 0 8 -9 12 -65 1 -13 5 -23
9 -20 7 4 21 -53 24 -95 1 -8 7 -14 14 -12 15 3 16 -10 0 -26 -9 -9 -8 -12 4
-12 9 0 19 -7 22 -16 3 -8 2 -13 -3 -10 -5 4 -4 -5 2 -18 7 -13 15 -22 19 -20
11 7 10 -4 -3 -27 -10 -19 -9 -19 10 -9 19 10 20 9 12 -14 -5 -13 -8 -32 -6
-42 2 -11 4 -21 4 -24 1 -3 5 1 10 8 6 10 10 4 16 -20 4 -18 7 -39 6 -45 -1
-7 6 -13 15 -13 12 0 14 -4 7 -12 -13 -17 -7 -69 9 -79 9 -6 8 -13 -7 -31 -16
-18 -16 -20 -2 -9 24 19 28 11 16 -32 -10 -38 -31 -43 -24 -7 2 11 0 20 -6 20
-5 0 -9 11 -9 25 0 14 -3 25 -8 25 -8 0 -6 -3 -75 131 -72 142 -130 247 -145
261 -10 10 -10 5 1 -17 8 -16 22 -47 31 -67 9 -21 21 -38 28 -38 6 0 3 -7 -8
-15 -17 -13 -17 -14 -1 -15 9 0 17 -7 17 -16 0 -9 5 -12 13 -8 9 6 9 5 0 -7
-10 -12 -10 -18 0 -29 9 -10 9 -11 0 -6 -9 5 -13 0 -12 -16 0 -13 3 -17 6 -10
2 6 12 12 21 12 13 0 14 -2 4 -8 -7 -5 -10 -16 -6 -26 4 -11 1 -22 -7 -27 -11
-7 -10 -9 6 -10 11 -1 23 -1 27 -1 3 1 12 -5 19 -14 9 -11 9 -18 1 -26 -6 -6
-8 -17 -5 -24 3 -8 0 -14 -6 -14 -6 0 -12 10 -12 23 -1 16 -2 18 -6 4 -2 -9
-10 -17 -16 -17 -7 0 -6 -5 3 -11 12 -9 10 -10 -8 -6 -23 5 -23 5 -6 -14 9
-10 27 -19 38 -20 19 0 19 -1 3 -8 -17 -6 -16 -8 7 -19 17 -8 26 -19 26 -34
-1 -21 -2 -21 -11 -5 -5 9 -15 17 -20 17 -6 0 -8 -4 -4 -9 3 -5 1 -12 -5 -16
-5 -3 -10 -2 -10 4 0 6 -7 8 -16 4 -14 -5 -13 -9 7 -25 13 -10 32 -16 41 -14
22 5 24 -10 2 -18 -8 -3 -12 -10 -9 -16 3 -5 0 -10 -7 -10 -19 -1 34 -40 53
-40 9 0 27 -9 40 -21 21 -18 21 -20 4 -14 -32 11 -59 11 -67 0 -5 -7 -11 -6
-16 3 -7 10 -16 9 -45 -3 -20 -8 -48 -15 -61 -15 -42 0 -134 -49 -119 -63 3
-4 -11 -14 -31 -23 -42 -21 -46 -34 -11 -34 14 0 25 4 25 10 0 5 3 9 8 9 20
-3 32 2 32 15 0 18 23 27 40 16 8 -5 22 -4 32 1 11 6 55 10 98 10 78 0 124
-14 158 -47 17 -17 318 -20 342 -3 11 8 5 9 -26 7 -30 -2 -40 0 -37 9 3 7 -1
13 -8 13 -8 0 -5 6 7 15 10 8 15 15 9 15 -5 0 -3 5 5 10 12 8 10 10 -11 10
-20 0 -25 5 -24 22 1 12 7 24 13 26 7 2 12 9 12 15 0 8 -4 7 -12 -1 -17 -17
-33 -15 -18 3 14 16 6 35 -16 35 -13 0 -19 13 -15 34 1 5 -4 13 -11 17 -10 7
-10 9 0 9 10 0 10 5 2 20 -6 11 -8 25 -5 30 3 6 1 10 -6 10 -8 0 -8 4 1 15 10
12 10 15 -3 15 -23 0 -32 21 -13 32 21 12 21 26 -1 24 -11 0 -17 6 -17 17 1 9
-5 17 -13 17 -13 0 -13 3 -3 15 10 12 9 15 -5 15 -10 0 -15 3 -12 7 4 3 2 12
-5 20 -6 8 -7 13 -2 12 21 -4 25 2 10 16 -8 9 -12 23 -9 32 4 10 2 14 -4 10
-6 -4 -14 4 -17 18 -4 14 -11 25 -16 25 -6 0 -10 5 -10 10 0 6 6 10 14 10 21
0 8 38 -15 45 -11 4 -17 11 -14 16 4 5 -1 19 -9 31 -9 12 -16 30 -16 40 0 10
-5 18 -11 18 -8 0 -8 4 -1 13 8 10 6 16 -9 25 -16 10 -18 16 -10 26 8 10 8 16
-2 25 -8 6 -17 8 -20 4 -4 -3 -7 4 -7 16 0 14 -7 25 -20 28 -13 4 -20 14 -20
30 0 14 -10 33 -22 44 -15 11 -18 18 -9 19 9 0 10 4 4 13 -5 6 -9 33 -8 59 0
27 -3 48 -7 48 -5 0 -8 14 -8 30 0 17 -6 37 -12 44 -10 11 -16 9 -30 -10 -10
-12 -18 -28 -18 -36 0 -7 -11 -13 -24 -13 -21 0 -23 2 -13 21 19 35 123 124
145 124 23 0 33 -19 25 -51 -4 -14 -2 -20 4 -16 14 9 29 -11 38 -46 4 -15 11
-27 17 -27 5 0 6 -5 3 -10 -3 -6 -2 -10 3 -10 14 0 22 -38 8 -44 -6 -2 -3 -5
7 -5 17 -1 21 -14 19 -61 -1 -14 1 -19 4 -12 9 20 31 14 37 -10 4 -14 0 -30
-11 -42 -15 -19 -15 -19 0 -8 14 11 18 10 26 -5 5 -10 10 -36 11 -58 2 -45 11
-62 11 -22 0 27 15 39 18 15 2 -12 9 -59 11 -67 1 -2 7 2 15 8 12 10 13 6 9
-29 -4 -28 -2 -40 7 -40 7 0 10 7 7 15 -4 8 -1 17 5 21 7 5 9 -4 6 -25 -3 -18
-1 -34 4 -37 5 -3 6 -10 3 -15 -4 -5 -2 -9 4 -9 6 0 9 -6 7 -12 -1 -7 -1 -10
1 -5 15 26 36 -18 33 -68 -2 -26 0 -27 14 -16 17 14 16 15 20 -31 1 -7 5 -16
10 -20 11 -8 18 -60 6 -53 -10 6 -35 -23 -26 -32 3 -3 6 -1 6 5 0 14 22 12 32
-3 10 -14 41 -12 57 3 16 16 24 11 15 -12 -3 -9 -15 -16 -26 -16 -12 0 -18 -6
-16 -17 2 -13 -5 -19 -25 -21 -21 -3 -27 -8 -23 -19 3 -8 6 -19 6 -24 0 -5 5
-9 11 -9 6 0 8 10 5 23 -3 12 -3 16 0 10 9 -20 42 -15 49 7 3 11 11 20 16 20
6 0 3 -10 -5 -22 -21 -30 -20 -36 7 -41 19 -4 19 -4 -5 -6 -14 0 -29 5 -31 12
-3 6 -6 0 -6 -15 -1 -29 -15 -38 -24 -15 -4 7 -6 6 -6 -4 -1 -9 -11 -24 -23
-32 -18 -13 -19 -16 -7 -16 9 -1 20 6 23 15 3 9 13 14 21 11 8 -4 16 2 20 14
9 26 25 24 18 -2 -4 -12 0 -25 8 -30 11 -6 11 -11 1 -21 -6 -6 -12 -23 -12
-36 0 -13 -4 -20 -10 -17 -6 3 -7 18 -4 33 4 15 3 23 -2 19 -4 -4 -9 -23 -9
-42 -1 -26 2 -32 14 -28 13 5 14 3 4 -8 -7 -7 -13 -19 -13 -27 0 -10 3 -10 16
2 8 9 20 16 25 16 13 0 11 -18 -4 -23 -7 -3 -5 -6 6 -6 11 -1 17 6 17 21 0 16
3 19 11 11 16 -16 3 -43 -21 -43 -11 0 -20 -7 -20 -15 0 -8 -6 -15 -12 -16 -7
0 -4 -4 7 -9 21 -9 11 -13 -30 -12 -18 1 -18 0 -2 -5 13 -3 17 -11 14 -24 -3
-10 -1 -19 5 -19 5 0 6 -4 3 -10 -3 -5 -1 -10 5 -10 7 0 9 8 5 20 -5 16 -2 20
14 20 24 0 27 -10 9 -28 -9 -9 -7 -12 10 -12 13 0 25 7 28 15 8 19 24 19 24 0
0 -23 18 -18 23 8 l4 22 2 -22 c1 -20 6 -22 46 -21 24 0 42 4 40 9 -3 4 -1 10
5 14 16 10 12 28 -5 21 -17 -6 -21 19 -5 29 6 4 4 12 -6 22 -11 12 -12 18 -3
23 6 4 8 13 5 19 -4 6 -12 8 -18 5 -8 -5 -9 -1 -5 10 4 10 7 24 7 32 0 9 5 12
10 9 9 -6 11 0 9 23 0 4 -6 6 -13 4 -9 -1 -13 14 -14 50 0 28 -6 54 -13 58 -6
5 -8 13 -4 21 6 9 4 11 -8 6 -12 -4 -17 3 -22 34 -4 21 -12 39 -18 39 -5 0 -8
3 -4 6 3 4 0 13 -8 20 -8 8 -12 21 -9 29 4 9 0 15 -10 15 -9 0 -16 -5 -16 -11
0 -5 -5 -7 -11 -3 -8 5 -8 9 1 14 9 6 9 13 1 28 -7 14 -8 23 -1 27 5 3 10 11
10 16 0 6 -5 7 -11 4 -14 -9 -49 24 -49 47 0 22 -24 51 -34 41 -3 -4 -6 3 -6
13 0 11 -5 25 -12 32 -8 8 -8 15 2 27 10 12 10 15 -4 15 -9 0 -17 5 -17 10 -1
6 -3 15 -4 20 -1 6 -3 18 -4 28 -2 15 -3 15 -10 -2 -7 -18 -8 -18 -14 -2 -4
10 -3 26 3 35 11 21 4 32 -16 24 -20 -7 -17 7 4 24 16 13 16 13 -3 11 -11 -1
-25 1 -32 5 -15 10 -6 37 13 37 8 0 14 10 14 23 -1 21 -2 21 -14 4 -11 -14
-15 -15 -19 -4 -3 8 0 20 6 27 10 10 7 12 -10 7 -13 -3 -26 -1 -29 4 -3 5 0 9
5 9 6 0 11 7 11 15 0 9 -6 12 -15 9 -8 -4 -15 -1 -15 4 0 17 20 25 34 13 9 -7
16 -7 24 1 17 17 15 33 -2 19 -11 -9 -15 -9 -18 0 -2 7 -20 13 -39 13 l-36 1
30 28 c17 15 33 24 36 19 3 -5 21 -15 39 -23 17 -8 32 -17 32 -20 0 -3 19 -14
42 -24 24 -9 50 -21 59 -25 9 -5 33 -12 53 -15 20 -4 37 -11 37 -16 1 -5 2
-14 3 -20 2 -19 65 -19 77 0 8 13 9 12 4 -6 -8 -29 9 -37 30 -13 10 11 27 20
38 20 19 0 19 -1 -2 -19 -31 -27 -18 -43 19 -25 16 9 34 13 39 10 5 -4 12 3
16 14 4 11 10 18 15 15 4 -3 10 2 14 10 3 8 14 15 25 15 10 0 21 7 25 15 3 8
13 15 22 15 24 0 108 59 179 124 33 31 67 56 76 56 9 0 36 22 59 50 23 28 49
50 56 50 8 0 14 4 14 10 0 5 7 7 16 3 9 -3 20 0 24 8 5 7 11 11 13 9 9 -10 16
-120 8 -120 -13 0 -21 -53 -10 -66 5 -6 6 -13 3 -16 -3 -3 -7 -25 -10 -49 -8
-79 -9 -84 -17 -90 -4 -3 -10 -27 -12 -53 -3 -28 -13 -55 -25 -68 -24 -26 -25
-38 -5 -38 21 0 19 -18 -4 -25 -13 -4 -17 -12 -14 -26 4 -12 0 -25 -8 -30 -8
-5 -13 -20 -11 -37 2 -16 -3 -34 -12 -41 -11 -9 -12 -19 -6 -36 7 -18 5 -26
-12 -37 -14 -9 -20 -24 -20 -50 0 -29 -4 -37 -21 -42 -15 -4 -19 -8 -11 -16
12 -12 6 -70 -7 -70 -5 0 -9 -8 -9 -19 0 -10 -8 -29 -17 -42 -40 -54 -42 -63
-19 -82 14 -13 16 -18 6 -17 -30 4 -38 0 -44 -25 -4 -14 -11 -23 -16 -20 -10
6 -14 -14 -10 -49 1 -14 -3 -17 -17 -13 -15 5 -16 5 -3 -4 14 -10 13 -16 -4
-54 -16 -34 -22 -40 -31 -29 -7 11 -10 4 -11 -26 -1 -46 -11 -61 -24 -40 -8
13 -10 12 -10 -2 0 -16 11 -18 85 -18 l85 0 65 135 c92 188 142 345 185 583
23 125 31 170 36 222 2 30 9 71 13 90 5 19 9 42 9 50 2 50 16 125 27 147 8 15
12 30 10 34 -3 4 2 9 10 13 8 3 15 12 15 19 0 27 54 72 87 72 22 0 28 3 22 11
-6 8 0 11 20 10 16 -1 27 -4 24 -8 -7 -13 25 -9 47 4 17 11 22 10 30 -2 5 -8
8 -20 6 -26 -2 -6 9 -18 24 -28 19 -11 27 -22 23 -32 -3 -9 0 -14 8 -12 30 7
42 -151 14 -182 -9 -10 -14 -24 -10 -29 3 -6 -1 -20 -9 -32 -8 -12 -12 -28 -9
-37 4 -10 2 -13 -5 -8 -12 7 -17 -16 -12 -57 1 -14 -3 -17 -17 -13 -13 4 -19
1 -21 -12 -1 -9 -4 -37 -6 -62 -3 -25 -6 -45 -6 -45 -1 0 -3 -9 -4 -20 -12
-83 -18 -113 -25 -130 -14 -33 -32 -98 -35 -127 -1 -15 -8 -33 -14 -41 -7 -8
-9 -16 -7 -19 3 -3 0 -18 -6 -34 -6 -16 -13 -42 -15 -57 -5 -34 -48 -100 -58
-89 -5 4 -6 -4 -4 -18 3 -27 -18 -60 -39 -60 -7 0 -13 -7 -13 -15 0 -8 -16
-30 -35 -49 -22 -22 -30 -36 -22 -40 7 -2 5 -5 -5 -5 -9 -1 -23 -7 -30 -14 -7
-7 -26 -18 -43 -25 -16 -7 -35 -24 -42 -37 l-11 -25 108 0 108 0 17 50 c9 27
21 50 26 50 6 0 18 -14 27 -31 35 -63 35 -64 73 9 36 67 36 68 18 91 -15 18
-19 40 -19 96 0 41 4 85 9 99 7 16 6 35 -2 55 -9 25 -7 45 17 128 52 178 98
317 127 379 16 34 29 68 29 76 0 8 13 24 28 35 29 21 29 21 45 2 10 -11 17
-23 17 -28 0 -29 51 -14 63 19 3 8 6 3 6 -12 1 -16 -3 -28 -9 -28 -5 0 -10 -5
-10 -12 0 -9 5 -8 15 2 17 17 19 50 9 140 -10 99 4 67 26 -59 12 -63 28 -127
36 -143 14 -26 14 -31 1 -41 -11 -9 -17 -43 -22 -121 -3 -60 -7 -112 -9 -115
-2 -3 -7 -37 -10 -76 -4 -38 -11 -101 -16 -140 -33 -241 -50 -383 -50 -402 l0
-23 615 0 615 0 0 1640 0 1640 -1900 0 -1900 0 0 -817z m1645 427 c-3 -5 -12
-10 -18 -10 -7 0 -6 4 3 10 19 12 23 12 15 0z m265 -5 c16 -8 33 -21 37 -28 4
-7 29 -28 56 -47 27 -19 47 -41 47 -52 0 -10 5 -18 11 -18 6 0 9 -6 6 -14 -3
-8 1 -22 8 -33 8 -10 14 -42 15 -75 0 -54 1 -56 25 -53 14 1 25 -2 25 -6 0 -5
7 -9 15 -9 32 0 47 -79 22 -114 -17 -24 -95 -34 -102 -13 -4 9 -14 13 -26 10
-13 -4 -36 11 -77 48 -84 77 -181 124 -252 123 -31 -1 -66 -6 -78 -13 -14 -8
-22 -8 -22 -1 0 5 -8 10 -17 9 -11 0 -13 -3 -5 -6 6 -2 12 -9 12 -14 0 -14
-29 -11 -61 8 -33 20 -47 45 -21 37 9 -3 -7 8 -35 23 -29 15 -53 32 -53 39 0
15 43 26 74 18 14 -3 33 -1 43 6 15 9 12 10 -17 5 -26 -5 -31 -4 -20 4 11 8
12 11 2 11 -7 0 -10 5 -7 10 4 6 12 9 18 8 18 -4 77 23 72 33 -3 4 7 15 22 23
24 13 25 15 8 16 -16 0 -17 2 -6 9 8 5 20 7 28 4 7 -3 13 2 13 10 0 22 65 34
86 16 13 -10 17 -10 24 0 5 9 22 12 49 9 36 -3 40 -1 35 14 -7 22 8 23 46 3z
m864 -11 c4 -10 1 -14 -6 -12 -15 5 -23 28 -10 28 5 0 13 -7 16 -16z m34 -34
c-7 -10 -14 -17 -17 -15 -4 4 18 35 25 35 2 0 -1 -9 -8 -20z m-1213 -19 c-3
-6 -11 -11 -17 -11 -6 0 -6 6 2 15 14 17 26 13 15 -4z m432 -13 c-3 -8 -6 -5
-6 6 -1 11 2 17 5 13 3 -3 4 -12 1 -19z m-452 -18 c-3 -5 -10 -10 -16 -10 -5
0 -9 5 -9 10 0 6 7 10 16 10 8 0 12 -4 9 -10z m-128 -147 c-9 -8 -45 11 -41
22 5 11 9 10 24 -3 11 -9 18 -17 17 -19z m-213 -21 c6 -10 -84 -35 -93 -27 -3
4 3 13 13 21 21 15 72 19 80 6z m309 -47 c57 -25 61 -30 57 -72 -1 -23 23 -57
33 -47 3 3 15 -9 27 -26 13 -18 37 -41 54 -51 17 -10 25 -19 18 -19 -7 0 -24
7 -38 16 -38 25 -42 7 -6 -26 44 -39 97 -55 145 -42 29 8 37 8 37 -2 0 -18 42
-15 48 3 3 10 0 12 -11 8 -13 -5 -13 -2 -2 20 15 28 33 43 53 43 7 0 3 -10
-11 -22 -13 -13 -22 -28 -20 -35 7 -19 -26 -60 -62 -77 -26 -13 -51 -15 -107
-11 -88 7 -112 18 -132 59 -9 17 -16 25 -16 17 0 -19 46 -78 73 -93 12 -6 36
-15 52 -18 19 -5 24 -9 15 -12 -8 -3 -61 -20 -117 -37 l-103 -32 0 -53 c0 -30
-3 -68 -6 -85 -8 -40 12 -42 21 -1 8 35 39 41 61 13 12 -16 13 -16 14 -2 0 11
10 16 30 17 17 0 30 -4 30 -9 0 -5 7 -9 17 -9 22 0 93 -32 93 -42 0 -4 9 -8
21 -8 12 0 23 -8 26 -19 3 -13 11 -17 24 -14 13 4 19 0 19 -12 0 -11 5 -15 16
-11 11 4 14 1 12 -11 -6 -32 -97 -23 -133 14 -26 25 -38 9 -15 -20 23 -28 20
-47 -7 -47 -19 0 -63 -38 -63 -54 1 -6 15 -20 32 -31 17 -11 37 -30 45 -41 21
-32 -8 -58 -57 -51 -20 2 -45 0 -54 -5 -10 -5 -28 -7 -41 -4 -31 8 -203 179
-243 241 -17 28 -35 55 -39 61 -50 68 -75 154 -75 266 -1 117 -14 196 -31 179
-19 -19 -46 -12 -53 14 -3 14 -12 25 -20 25 -16 0 -18 18 -4 40 5 9 5 19 -2
27 -8 10 -6 13 5 13 10 0 17 11 19 28 2 21 11 30 38 38 22 8 37 8 41 2 3 -5 8
-9 10 -8 2 1 12 -2 22 -5 11 -5 17 -18 17 -41 0 -30 3 -34 25 -34 19 0 28 8
39 34 8 18 19 37 25 40 6 4 9 12 5 17 -3 5 0 17 7 25 17 20 66 13 142 -21z
m254 -36 l28 -12 -26 -7 c-14 -4 -55 -11 -90 -14 l-63 -7 24 25 c26 29 77 35
127 15z m213 -287 c0 -31 4 -71 9 -88 16 -55 3 -84 -46 -106 -42 -18 -70 -17
-57 3 7 11 -56 39 -88 39 -21 -1 -22 -2 -6 -14 10 -7 20 -28 22 -47 2 -24 12
-39 32 -52 25 -16 25 -17 6 -12 -13 4 -49 8 -80 9 -43 2 -71 11 -114 35 -32
18 -58 36 -58 39 0 17 38 42 90 59 42 13 60 24 64 38 5 21 127 120 175 142 46
22 51 17 51 -45z m148 -125 c16 -11 15 -47 -2 -47 -22 0 -60 35 -52 48 7 12
33 12 54 -1z m192 10 c0 -2 -12 -14 -27 -28 l-28 -24 24 28 c23 25 31 32 31
24z m-1780 -61 c0 -3 -4 -8 -10 -11 -5 -3 -10 -1 -10 4 0 6 5 11 10 11 6 0 10
-2 10 -4z m1584 -41 c2 -6 -4 -21 -14 -33 l-18 -21 -10 27 c-6 15 -14 38 -17
51 l-7 23 31 -18 c17 -10 32 -23 35 -29z m-1617 3 c-3 -8 -6 -5 -6 6 -1 11 2
17 5 13 3 -3 4 -12 1 -19z m138 -129 c4 -6 -2 -17 -14 -25 -12 -9 -19 -20 -16
-25 4 -5 2 -9 -4 -9 -20 0 -24 43 -5 57 22 16 31 16 39 2z m-85 -59 c0 -5 -2
-10 -4 -10 -3 0 -8 5 -11 10 -3 6 -1 10 4 10 6 0 11 -4 11 -10z m1255 -30 c3
-5 1 -10 -4 -10 -6 0 -11 5 -11 10 0 6 2 10 4 10 3 0 8 -4 11 -10z m910 -71
c-10 -15 -25 -10 -19 6 4 8 10 12 15 9 5 -3 7 -10 4 -15z m-1366 -36 c35 -42
39 -63 14 -63 -21 0 -73 59 -73 83 0 28 27 19 59 -20z m-722 -19 c-8 -47 -14
-52 -32 -28 -18 24 -18 29 1 48 26 27 37 19 31 -20z m691 -60 c-10 -10 -28 6
-28 24 0 15 1 15 17 -1 9 -9 14 -19 11 -23z m1709 -6 c-3 -8 -6 -5 -6 6 -1 11
2 17 5 13 3 -3 4 -12 1 -19z m-23 -127 c3 -5 0 -11 -8 -14 -8 -3 -17 1 -20 9
-6 15 19 20 28 5z m44 -36 c-3 -3 -9 2 -12 12 -6 14 -5 15 5 6 7 -7 10 -15 7
-18z m-1488 -54 c0 -10 -7 -24 -15 -31 -8 -7 -15 -24 -16 -39 0 -14 -3 -20 -6
-13 -7 18 -21 15 -28 -7 -3 -11 -16 -23 -28 -27 -11 -4 -27 -13 -35 -20 -17
-17 -32 -18 -32 -1 0 9 -3 8 -9 -2 -6 -9 -11 -10 -15 -2 -4 7 -15 7 -31 1 -17
-6 -25 -5 -28 5 -7 17 1 25 25 25 31 0 100 40 150 86 51 48 68 54 68 25z
m-591 -39 c-11 -14 -11 -15 1 -4 19 17 33 15 26 -4 -3 -8 -2 -12 4 -9 6 3 10
-1 10 -9 0 -10 6 -13 16 -9 14 5 15 3 3 -18 -15 -25 -19 -99 -6 -99 4 0 7 -8
7 -17 0 -15 2 -16 10 -3 9 15 11 12 14 -20 1 -8 8 -14 15 -12 10 2 12 -7 7
-35 -5 -33 -4 -35 6 -15 17 34 27 26 15 -13 -6 -22 -13 -31 -18 -24 -4 7 -15
9 -24 5 -14 -5 -17 -2 -13 19 7 32 2 32 -16 -2 -15 -28 -21 -20 -16 22 l2 20
-23 -20 -22 -20 5 22 c5 20 4 21 -14 12 -19 -10 -20 -9 -16 15 6 30 0 33 -18
9 -12 -16 -13 -16 -14 -2 0 9 -9 19 -21 22 -16 4 -19 10 -14 29 6 19 5 21 -6
11 -20 -20 -31 -15 -23 9 6 21 5 22 -11 8 -17 -14 -18 -13 -11 13 6 26 5 27
-14 17 -15 -8 -20 -8 -20 3 0 7 6 19 13 26 10 10 7 11 -15 6 -32 -8 -35 0 -11
27 18 20 5 25 -16 6 -11 -11 -13 -10 -9 2 5 15 88 63 96 55 3 -2 -3 -7 -12
-11 -26 -10 -18 -25 10 -18 20 5 25 4 19 -6 -5 -9 -2 -10 14 -5 13 4 21 2 21
-6 0 -9 4 -8 15 1 14 11 19 7 16 -12 0 -5 4 -8 10 -8 6 0 8 7 5 16 -3 8 2 27
11 41 10 14 19 21 21 14 2 -6 -2 -19 -9 -29z m730 -69 c1 -1 -4 -16 -13 -34
-9 -17 -13 -35 -10 -40 9 -14 -25 -42 -43 -35 -13 5 -14 4 -4 -8 10 -12 6 -16
-23 -26 -19 -6 -37 -19 -41 -28 -6 -15 -8 -14 -20 8 -21 36 -19 47 18 92 71
90 84 100 109 86 13 -7 25 -14 27 -15z m-500 -4 c-16 -10 -23 -4 -14 10 3 6
11 8 17 5 6 -4 5 -9 -3 -15z m-479 -19 c0 -5 -5 -10 -11 -10 -5 0 -7 5 -4 10
3 6 8 10 11 10 2 0 4 -4 4 -10z m500 0 c0 -5 -4 -10 -10 -10 -5 0 -10 5 -10
10 0 6 5 10 10 10 6 0 10 -4 10 -10z m23 -10 c-7 -25 -22 -36 -18 -13 2 10 4
21 4 26 1 4 5 7 10 7 5 0 7 -9 4 -20z m-66 -12 c-3 -8 -6 -5 -6 6 -1 11 2 17
5 13 3 -3 4 -12 1 -19z m90 0 c-3 -8 -6 -5 -6 6 -1 11 2 17 5 13 3 -3 4 -12 1
-19z m30 0 c-3 -8 -6 -5 -6 6 -1 11 2 17 5 13 3 -3 4 -12 1 -19z m-887 8 c0
-2 -7 -9 -15 -16 -13 -11 -14 -10 -9 4 5 14 24 23 24 12z m693 -38 c7 -4 7
-11 -2 -22 -11 -13 -11 -16 2 -16 18 0 31 -16 20 -23 -5 -3 -17 1 -27 9 -15
11 -17 16 -7 28 10 11 9 16 -4 23 -11 6 -13 15 -8 29 7 19 7 19 11 -1 3 -11 9
-23 15 -27z m98 -11 c-8 -8 -11 -7 -11 4 0 20 13 34 18 19 3 -7 -1 -17 -7 -23z
m25 -34 c-10 -26 -18 -8 -9 23 5 21 8 24 11 11 2 -10 1 -25 -2 -34z m-427 20
c0 -10 -4 -27 -8 -37 -7 -19 -8 -19 -14 3 -6 26 0 51 14 51 5 0 9 -8 8 -17z
m401 -7 c0 -3 -4 -8 -10 -11 -5 -3 -10 -1 -10 4 0 6 5 11 10 11 6 0 10 -2 10
-4z m-324 -31 c9 -8 8 -16 -1 -28 -16 -22 -25 -22 -25 2 0 10 -7 22 -16 25 -8
3 -13 10 -9 15 6 11 34 3 51 -14z m374 -40 c-9 -58 -24 -74 -18 -19 5 36 14
64 22 64 2 0 0 -20 -4 -45z m270 24 c0 -6 -4 -7 -10 -4 -5 3 -10 11 -10 16 0
6 5 7 10 4 6 -3 10 -11 10 -16z m-349 -32 c-10 -9 -11 -8 -5 6 3 10 9 15 12
12 3 -3 0 -11 -7 -18z m-40 -20 c-8 -8 -11 -7 -11 4 0 20 13 34 18 19 3 -7 -1
-17 -7 -23z m89 26 c0 -5 -5 -15 -10 -23 -8 -12 -10 -11 -10 8 0 12 5 22 10
22 6 0 10 -3 10 -7z m205 -3 c3 -5 1 -10 -4 -10 -6 0 -11 5 -11 10 0 6 2 10 4
10 3 0 8 -4 11 -10z m-148 -42 c-3 -8 -6 -5 -6 6 -1 11 2 17 5 13 3 -3 4 -12
1 -19z m-307 -384 c0 -2 -7 -4 -15 -4 -8 0 -15 4 -15 10 0 5 7 7 15 4 8 -4 15
-8 15 -10z m-325 -94 c3 -5 1 -10 -4 -10 -6 0 -11 5 -11 10 0 6 2 10 4 10 3 0
8 -4 11 -10z m412 -97 c-3 -10 -5 -2 -5 17 0 19 2 27 5 18 2 -10 2 -26 0 -35z
m157 -179 c3 -8 2 -12 -4 -9 -6 3 -10 10 -10 16 0 14 7 11 14 -7z m-99 -34 c3
-5 -1 -10 -10 -10 -9 0 -13 5 -10 10 3 6 8 10 10 10 2 0 7 -4 10 -10z m-405
-15 c0 -9 -6 -12 -16 -8 -13 5 -13 7 -2 14 17 11 18 11 18 -6z m407 -37 c-3
-8 -6 -5 -6 6 -1 11 2 17 5 13 3 -3 4 -12 1 -19z m10 -50 c-3 -8 -6 -5 -6 6
-1 11 2 17 5 13 3 -3 4 -12 1 -19z m-177 -18 c0 -5 -7 -7 -15 -4 -8 4 -15 8
-15 10 0 2 7 4 15 4 8 0 15 -4 15 -10z m220 -40 c0 -5 -4 -10 -10 -10 -5 0
-10 5 -10 10 0 6 5 10 10 10 6 0 10 -4 10 -10z m-30 -30 c0 -5 -4 -10 -9 -10
-5 0 -11 -9 -14 -20 -3 -11 -13 -20 -24 -20 -17 1 -17 1 0 11 12 7 16 17 12
30 -5 15 -2 19 14 19 12 0 21 -4 21 -10z m120 -27 c0 -7 -4 -13 -10 -13 -5 0
-7 7 -4 15 4 8 1 15 -6 15 -6 0 -8 5 -4 11 7 12 24 -7 24 -28z m680 -43 c12
-8 11 -10 -7 -10 -12 0 -25 5 -28 10 -8 13 15 13 35 0z"/>
<path d="M1207 2473 c-3 -5 -2 -15 2 -22 5 -7 11 -9 14 -4 3 5 2 15 -2 22 -5
7 -11 9 -14 4z"/>
<path d="M1603 2365 c0 -22 2 -30 4 -17 2 12 2 30 0 40 -3 9 -5 -1 -4 -23z"/>
<path d="M990 1309 c0 -5 5 -7 10 -4 6 3 10 8 10 11 0 2 -4 4 -10 4 -5 0 -10
-5 -10 -11z"/>
<path d="M408 1563 c12 -2 30 -2 40 0 9 3 -1 5 -23 4 -22 0 -30 -2 -17 -4z"/>
<path d="M415 1390 c-3 -5 -1 -10 4 -10 6 0 11 5 11 10 0 6 -2 10 -4 10 -3 0
-8 -4 -11 -10z"/>
<path d="M391 1374 c0 -11 3 -14 6 -6 3 7 2 16 -1 19 -3 4 -6 -2 -5 -13z"/>
<path d="M392 1334 c-28 -32 -22 -44 8 -14 11 11 25 18 30 15 6 -3 7 1 4 9 -8
22 -15 20 -42 -10z"/>
<path d="M351 1282 c-1 -20 2 -21 19 -12 23 12 27 25 6 17 -8 -3 -17 -1 -20 6
-2 7 -5 2 -5 -11z"/>
<path d="M449 1083 c-13 -16 -12 -17 4 -4 9 7 17 15 17 17 0 8 -8 3 -21 -13z"/>
<path d="M355 981 c-3 -5 -1 -12 5 -16 5 -3 10 1 10 9 0 18 -6 21 -15 7z"/>
<path d="M1255 930 c-3 -5 -1 -10 4 -10 6 0 11 5 11 10 0 6 -2 10 -4 10 -3 0
-8 -4 -11 -10z"/>
<path d="M438 832 c2 -16 10 -29 17 -29 11 0 11 5 -1 29 -8 15 -16 28 -18 28
-1 0 -1 -13 2 -28z"/>
<path d="M977 613 c-4 -3 -7 -16 -6 -27 0 -19 1 -19 10 3 10 24 8 36 -4 24z"/>
<path d="M672 530 c0 -14 2 -19 5 -12 2 6 2 18 0 25 -3 6 -5 1 -5 -13z"/>
<path d="M520 505 c0 -8 5 -15 10 -15 6 0 10 7 10 15 0 8 -4 15 -10 15 -5 0
-10 -7 -10 -15z"/>
<path d="M1010 340 c0 -5 7 -7 15 -4 8 4 15 8 15 10 0 2 -7 4 -15 4 -8 0 -15
-4 -15 -10z"/>
<path d="M528 277 c-3 -19 -2 -25 4 -19 6 6 8 18 6 28 -3 14 -5 12 -10 -9z"/>
<path d="M1076 245 c-3 -8 -1 -15 4 -15 6 0 10 7 10 15 0 8 -2 15 -4 15 -2 0
-6 -7 -10 -15z"/>
<path d="M1025 206 c-18 -13 -18 -14 4 -21 14 -4 20 -12 17 -21 -3 -8 -1 -14
3 -14 5 0 12 6 14 13 3 7 6 5 6 -6 1 -11 -11 -23 -30 -31 -31 -13 -26 -32 5
-20 19 7 19 8 7 -32 -8 -29 -7 -31 15 -31 20 -1 22 1 10 11 -12 9 -13 21 -6
56 12 62 12 110 -1 110 -5 0 -8 -4 -5 -9 3 -5 -1 -12 -10 -15 -24 -9 -28 -7
-14 9 16 19 10 19 -15 1z"/>
<path d="M1086 105 c-9 -26 -7 -32 5 -12 6 10 9 21 6 23 -2 3 -7 -2 -11 -11z"/>
<path d="M653 27 c-18 -5 -33 -14 -33 -18 0 -14 23 -11 47 6 16 11 22 12 26 2
2 -6 7 -9 11 -6 15 14 -20 25 -51 16z"/>
</g>
</svg>
